<svg width="697" height="70" viewBox="0 0 697 70" fill="none" xmlns="http://www.w3.org/2000/svg">
<path fill-rule="evenodd" clip-rule="evenodd" d="M335 47H352.5V5H300V8.5H296.5V19H303.5V12H307V15.5H310.5V19H314V12H335V47ZM342 12V19H349V15.5H345.5V12H342ZM342 36.5V40H349V36.5H342ZM342 26V29.5H349V26H342Z" fill="#D9A839"/>
<path fill-rule="evenodd" clip-rule="evenodd" d="M335 47H352.5V5H300V8.5H296.5V19H303.5V12H307V15.5H310.5V19H314V12H335V47ZM342 12V19H349V15.5H345.5V12H342ZM342 36.5V40H349V36.5H342ZM342 26V29.5H349V26H342Z" fill="url(#paint0_linear_15_5)" fill-opacity="0.7"/>
<path fill-rule="evenodd" clip-rule="evenodd" d="M282.5 26V61H331.5V22.5H286V26H282.5ZM296.5 29.5H293V33H289.5V36.5H296.5V29.5ZM289.5 49.5V54H324.5V43.5H321V40H317.5V36.5H310.5V40H307V43.5H303.5V47H293V49.5H289.5Z" fill="#D9A839"/>
<path fill-rule="evenodd" clip-rule="evenodd" d="M282.5 26V61H331.5V22.5H286V26H282.5ZM296.5 29.5H293V33H289.5V36.5H296.5V29.5ZM289.5 49.5V54H324.5V43.5H321V40H317.5V36.5H310.5V40H307V43.5H303.5V47H293V49.5H289.5Z" fill="url(#paint1_linear_15_5)" fill-opacity="0.7"/>
<path d="M524.599 57.5219V61.2883H505.296V57.5219H502V53.7555H505.296V50.4599H519.42V20.3285H529.307V17.0328H547.668V13.2664H561.792V9.5H566.5V53.7555H561.792V57.5219H547.668V53.7555H542.96V46.6934H547.668V42.4562H561.792V24.5657H557.084V27.8613H542.96V31.6277H529.307V57.5219H524.599Z" fill="#CB8348"/>
<path d="M524.599 57.5219V61.2883H505.296V57.5219H502V53.7555H505.296V50.4599H519.42V20.3285H529.307V17.0328H547.668V13.2664H561.792V9.5H566.5V53.7555H561.792V57.5219H547.668V53.7555H542.96V46.6934H547.668V42.4562H561.792V24.5657H557.084V27.8613H542.96V31.6277H529.307V57.5219H524.599Z" fill="url(#paint2_linear_15_5)" fill-opacity="0.7"/>
<path d="M689 30V39.5H696.5V30H689Z" fill="#CB8348"/>
<path d="M689 30V39.5H696.5V30H689Z" fill="url(#paint3_linear_15_5)" fill-opacity="0.7"/>
<path fill-rule="evenodd" clip-rule="evenodd" d="M657.5 61H685V57H689V49H685V45H681V41H677V37.5H673V33.5H677V29.5H681V25.5H685V21.5H689V14H685V10H677V6H665V10H657V14H649.5V22H645.5V30H642V41.5H646V49H649.5V53H653.5V57H657.5V61ZM649.5 45H653.5V52.5H661.5V57H681V53H684.5V49H681V45.5H677V41.5H673V38H669.5V30H665.5V25.5H661.5V18H653.5V26H649.5V45ZM673 29.5H669.5V17.5H661.5V14H681V21.5H677V25.5H673V29.5Z" fill="#CB8348"/>
<path fill-rule="evenodd" clip-rule="evenodd" d="M657.5 61H685V57H689V49H685V45H681V41H677V37.5H673V33.5H677V29.5H681V25.5H685V21.5H689V14H685V10H677V6H665V10H657V14H649.5V22H645.5V30H642V41.5H646V49H649.5V53H653.5V57H657.5V61ZM649.5 45H653.5V52.5H661.5V57H681V53H684.5V49H681V45.5H677V41.5H673V38H669.5V30H665.5V25.5H661.5V18H653.5V26H649.5V45ZM673 29.5H669.5V17.5H661.5V14H681V21.5H677V25.5H673V29.5Z" fill="url(#paint4_linear_15_5)" fill-opacity="0.7"/>
<path d="M0 61.25V0H17.5V8.75H26.25V17.5H35V8.75H43.75V0H61.25V61.25H43.75V26.25H35V43.75H26.25V26.25H17.5V61.25H0ZM97.65 8.75V0H115.15V8.75H97.65ZM80.15 61.25V52.5H97.65V26.25H88.9V17.5H115.15V52.5H132.65V61.25H80.15ZM151.55 61.25V52.5H142.8V26.25H151.55V17.5H186.55V0H204.05V61.25H151.55ZM160.3 52.5H186.55V26.25H160.3V52.5ZM240.45 8.75V0H257.95V8.75H240.45ZM222.95 61.25V52.5H240.45V26.25H231.7V17.5H257.95V52.5H275.45V61.25H222.95ZM357 61.25V0H374.5V8.75H383.25V17.5H392V8.75H400.75V0H418.25V61.25H400.75V26.25H392V43.75H383.25V26.25H374.5V61.25H357ZM437.15 61.25V52.5H428.4V43.75H437.15V35H472.15V26.25H437.15V17.5H480.9V26.25H489.65V61.25H437.15ZM445.9 52.5H472.15V43.75H445.9V52.5ZM597.45 8.75V0H614.95V8.75H597.45ZM579.95 61.25V52.5H597.45V26.25H588.7V17.5H614.95V52.5H632.45V61.25H579.95Z" fill="url(#paint5_linear_15_5)"/>
<defs>
<linearGradient id="paint0_linear_15_5" x1="317.324" y1="-25.8" x2="310.968" y2="115.919" gradientUnits="userSpaceOnUse">
<stop offset="0.375" stop-color="#FF0B71"/>
<stop offset="1"/>
</linearGradient>
<linearGradient id="paint1_linear_15_5" x1="317.324" y1="-25.8" x2="310.968" y2="115.919" gradientUnits="userSpaceOnUse">
<stop offset="0.375" stop-color="#FF0B71"/>
<stop offset="1"/>
</linearGradient>
<linearGradient id="paint2_linear_15_5" x1="534.088" y1="-18.9836" x2="528.188" y2="112.075" gradientUnits="userSpaceOnUse">
<stop offset="0.375" stop-color="#0ED4FF"/>
<stop offset="1"/>
</linearGradient>
<linearGradient id="paint3_linear_15_5" x1="669.113" y1="-24.25" x2="661.247" y2="114.774" gradientUnits="userSpaceOnUse">
<stop offset="0.375" stop-color="#F8EF2D"/>
<stop offset="1"/>
</linearGradient>
<linearGradient id="paint4_linear_15_5" x1="669.113" y1="-24.25" x2="661.247" y2="114.774" gradientUnits="userSpaceOnUse">
<stop offset="0.375" stop-color="#F8EF2D"/>
<stop offset="1"/>
</linearGradient>
<linearGradient id="paint5_linear_15_5" x1="321" y1="0" x2="321" y2="70" gradientUnits="userSpaceOnUse">
<stop stop-color="#D9A839"/>
<stop offset="0.369792" stop-color="#D9A839"/>
<stop offset="0.505208" stop-color="#CB8348"/>
<stop offset="0.645833" stop-color="#BA6E3D"/>
<stop offset="1" stop-color="#B75E1B"/>
</linearGradient>
</defs>
</svg>
